<?xml version="1.0" standalone="no"?>
<!DOCTYPE svg PUBLIC "-//W3C//DTD SVG 20010904//EN"
 "http://www.w3.org/TR/2001/REC-SVG-20010904/DTD/svg10.dtd">
<svg version="1.0" xmlns="http://www.w3.org/2000/svg"
 width="360.000000pt" height="360.000000pt" viewBox="0 0 360.000000 360.000000"
 preserveAspectRatio="xMidYMid meet">

<g transform="translate(0.000000,360.000000) scale(0.100000,-0.100000)"
fill="#000000" stroke="none">
<path d="M1605 3589 c-449 -47 -885 -280 -1179 -630 -307 -364 -456 -827 -418
-1297 20 -242 68 -421 173 -642 177 -369 470 -662 839 -839 221 -105 400 -153
642 -173 469 -38 933 112 1297 418 443 371 679 936 633 1512 -20 242 -68 421
-173 642 -270 565 -822 951 -1445 1010 -124 11 -252 11 -369 -1z m828 -1099
c61 -42 77 -82 77 -199 l0 -101 -45 0 c-41 0 -45 2 -45 25 l0 25 -815 0 -815
0 0 -504 0 -505 24 -28 24 -28 739 -3 c406 -2 753 0 771 3 18 3 43 17 54 31
17 18 31 24 65 24 25 0 43 -5 43 -11 0 -25 -43 -86 -77 -109 l-37 -25 -773 -3
c-743 -2 -776 -2 -817 17 -24 10 -56 36 -72 57 l-29 37 0 607 0 607 29 37 c16
21 47 47 70 57 39 18 76 19 817 16 l775 -2 37 -25z m97 -370 c5 -8 10 -30 10
-48 0 -26 5 -35 27 -43 15 -6 42 -17 60 -26 31 -15 33 -14 70 16 l38 31 39
-40 40 -39 -31 -39 c-25 -31 -29 -42 -20 -58 6 -10 16 -35 23 -54 11 -31 18
-36 61 -46 l48 -10 0 -55 0 -54 -47 -3 c-46 -3 -47 -3 -63 -52 -9 -28 -21 -52
-26 -56 -5 -3 5 -25 23 -50 l32 -44 -34 -35 c-19 -19 -38 -35 -43 -35 -4 0
-24 12 -42 26 l-34 25 -60 -22 c-53 -19 -61 -25 -61 -48 0 -62 -8 -71 -65 -71
l-53 0 -7 50 c-6 46 -9 50 -43 61 -21 6 -41 15 -47 20 -15 15 -35 10 -69 -16
-38 -29 -50 -26 -88 19 l-27 33 29 35 29 35 -24 59 c-24 59 -24 59 -72 64
l-48 5 0 55 0 55 53 9 c34 6 52 14 52 23 0 8 9 32 20 55 l20 41 -32 39 -31 39
34 35 c39 41 52 42 91 9 17 -14 33 -24 37 -23 3 2 29 12 57 23 50 18 52 20 58
65 4 26 8 49 11 52 11 11 97 1 105 -12z m-1153 -405 c29 -88 53 -163 53 -167
0 -5 -22 -8 -49 -8 -47 0 -50 2 -56 30 -7 31 -8 31 -63 28 -51 -3 -57 -5 -62
-28 -5 -22 -12 -25 -57 -28 l-51 -3 52 158 c28 87 55 164 59 171 6 9 27 12 65
10 l55 -3 54 -160z m308 143 c54 -24 70 -98 35 -156 -22 -35 -54 -52 -101 -52
-29 0 -29 -1 -29 -55 l0 -55 -50 0 -50 0 0 165 0 165 85 0 c46 0 96 -5 110
-12z m225 -153 l0 -165 -47 0 -48 0 0 165 0 165 48 0 47 0 0 -165z"/>
<path d="M2003 2403 c-19 -7 -16 -60 3 -67 26 -10 204 -7 225 4 10 6 19 19 19
30 0 11 -9 24 -19 30 -20 10 -205 13 -228 3z"/>
<path d="M2302 2398 c-28 -28 -1 -75 38 -63 14 4 20 15 20 35 0 36 -33 53 -58
28z"/>
<path d="M2397 1936 c-119 -43 -182 -170 -147 -297 13 -47 72 -115 124 -141
55 -28 146 -28 202 0 89 45 134 118 134 214 -1 165 -159 278 -313 224z"/>
<path d="M1247 1747 c-10 -36 -17 -67 -17 -69 0 -2 15 -2 32 -2 36 1 36 0 14
88 l-13 49 -16 -66z"/>
<path d="M1590 1770 c0 -16 0 -33 -1 -37 -1 -17 21 -13 41 7 16 16 18 24 10
40 -6 11 -20 20 -30 20 -16 0 -20 -7 -20 -30z"/>
</g>
</svg>
